<mxfile host="65bd71144e">
    <diagram id="QO2Tzb1RCqGz_loUETVd" name="Page-2">
        <mxGraphModel dx="1310" dy="599" grid="1" gridSize="10" guides="1" tooltips="1" connect="1" arrows="1" fold="1" page="1" pageScale="1" pageWidth="827" pageHeight="1169" math="0" shadow="0">
            <root>
                <mxCell id="0"/>
                <mxCell id="1" parent="0"/>
                <mxCell id="c_dcQmz6OHg3MqOsnEEQ-14" value="go routine" style="rounded=1;whiteSpace=wrap;html=1;fillColor=#1ba1e2;fontColor=#ffffff;strokeColor=#006EAF;verticalAlign=top;align=center;arcSize=9;" vertex="1" parent="1">
                    <mxGeometry x="450" y="330" width="110" height="90" as="geometry"/>
                </mxCell>
                <mxCell id="c_dcQmz6OHg3MqOsnEEQ-13" value="go routine" style="rounded=1;whiteSpace=wrap;html=1;fillColor=#1ba1e2;fontColor=#ffffff;strokeColor=#006EAF;verticalAlign=top;align=center;arcSize=9;" vertex="1" parent="1">
                    <mxGeometry x="180" y="330" width="180" height="90" as="geometry"/>
                </mxCell>
                <mxCell id="c_dcQmz6OHg3MqOsnEEQ-9" value="go routine" style="rounded=1;whiteSpace=wrap;html=1;fillColor=#1ba1e2;fontColor=#ffffff;strokeColor=#006EAF;verticalAlign=top;align=center;arcSize=9;" vertex="1" parent="1">
                    <mxGeometry x="180" y="90" width="380" height="90" as="geometry"/>
                </mxCell>
                <mxCell id="c_dcQmz6OHg3MqOsnEEQ-7" value="" style="rounded=0;whiteSpace=wrap;html=1;" vertex="1" parent="1">
                    <mxGeometry x="50" y="30" width="120" height="40" as="geometry"/>
                </mxCell>
                <mxCell id="c_dcQmz6OHg3MqOsnEEQ-5" style="edgeStyle=none;html=1;exitX=1;exitY=0.5;exitDx=0;exitDy=0;entryX=0;entryY=0.5;entryDx=0;entryDy=0;" edge="1" parent="1" source="c_dcQmz6OHg3MqOsnEEQ-1" target="c_dcQmz6OHg3MqOsnEEQ-4">
                    <mxGeometry relative="1" as="geometry"/>
                </mxCell>
                <mxCell id="c_dcQmz6OHg3MqOsnEEQ-1" value="Doc Reader" style="rounded=0;whiteSpace=wrap;html=1;" vertex="1" parent="1">
                    <mxGeometry x="200" y="120" width="120" height="40" as="geometry"/>
                </mxCell>
                <mxCell id="c_dcQmz6OHg3MqOsnEEQ-2" value="OPLog&lt;br&gt;Writer" style="rounded=0;whiteSpace=wrap;html=1;" vertex="1" parent="1">
                    <mxGeometry x="465" y="360" width="80" height="40" as="geometry"/>
                </mxCell>
                <mxCell id="c_dcQmz6OHg3MqOsnEEQ-3" value="OPLog Reader" style="rounded=0;whiteSpace=wrap;html=1;" vertex="1" parent="1">
                    <mxGeometry x="195" y="360" width="80" height="40" as="geometry"/>
                </mxCell>
                <mxCell id="c_dcQmz6OHg3MqOsnEEQ-4" value="Doc Writer" style="rounded=0;whiteSpace=wrap;html=1;" vertex="1" parent="1">
                    <mxGeometry x="360" y="120" width="120" height="40" as="geometry"/>
                </mxCell>
                <mxCell id="c_dcQmz6OHg3MqOsnEEQ-8" value="for each" style="edgeStyle=none;html=1;exitX=0.5;exitY=1;exitDx=0;exitDy=0;entryX=0;entryY=0.5;entryDx=0;entryDy=0;" edge="1" parent="1" source="c_dcQmz6OHg3MqOsnEEQ-6" target="c_dcQmz6OHg3MqOsnEEQ-1">
                    <mxGeometry x="-0.625" relative="1" as="geometry">
                        <Array as="points">
                            <mxPoint x="100" y="140"/>
                        </Array>
                        <mxPoint as="offset"/>
                    </mxGeometry>
                </mxCell>
                <mxCell id="c_dcQmz6OHg3MqOsnEEQ-6" value="Collections&lt;br&gt;to replicate" style="rounded=0;whiteSpace=wrap;html=1;" vertex="1" parent="1">
                    <mxGeometry x="40" y="40" width="120" height="40" as="geometry"/>
                </mxCell>
                <mxCell id="c_dcQmz6OHg3MqOsnEEQ-12" style="edgeStyle=none;html=1;exitX=1;exitY=0.5;exitDx=0;exitDy=0;" edge="1" parent="1" source="c_dcQmz6OHg3MqOsnEEQ-10" target="c_dcQmz6OHg3MqOsnEEQ-2">
                    <mxGeometry relative="1" as="geometry"/>
                </mxCell>
                <mxCell id="c_dcQmz6OHg3MqOsnEEQ-10" value="channel" style="rounded=1;whiteSpace=wrap;html=1;" vertex="1" parent="1">
                    <mxGeometry x="380" y="370" width="50" height="20" as="geometry"/>
                </mxCell>
                <mxCell id="c_dcQmz6OHg3MqOsnEEQ-16" style="edgeStyle=none;html=1;exitX=0.5;exitY=1;exitDx=0;exitDy=0;entryX=0;entryY=0.5;entryDx=0;entryDy=0;" edge="1" parent="1" source="c_dcQmz6OHg3MqOsnEEQ-15" target="c_dcQmz6OHg3MqOsnEEQ-13">
                    <mxGeometry relative="1" as="geometry">
                        <Array as="points">
                            <mxPoint x="100" y="375"/>
                        </Array>
                    </mxGeometry>
                </mxCell>
                <mxCell id="c_dcQmz6OHg3MqOsnEEQ-15" value="OPLog" style="rounded=0;whiteSpace=wrap;html=1;" vertex="1" parent="1">
                    <mxGeometry x="40" y="280" width="120" height="40" as="geometry"/>
                </mxCell>
                <mxCell id="c_dcQmz6OHg3MqOsnEEQ-18" style="edgeStyle=none;html=1;exitX=1;exitY=0.5;exitDx=0;exitDy=0;entryX=0;entryY=0.5;entryDx=0;entryDy=0;" edge="1" parent="1" source="c_dcQmz6OHg3MqOsnEEQ-17" target="c_dcQmz6OHg3MqOsnEEQ-10">
                    <mxGeometry relative="1" as="geometry"/>
                </mxCell>
                <mxCell id="c_dcQmz6OHg3MqOsnEEQ-17" value="Filtering" style="rounded=0;whiteSpace=wrap;html=1;" vertex="1" parent="1">
                    <mxGeometry x="280" y="360" width="60" height="40" as="geometry"/>
                </mxCell>
                <mxCell id="c_dcQmz6OHg3MqOsnEEQ-19" value="Database, Collections and operations filtering" style="rounded=0;whiteSpace=wrap;html=1;fillColor=#e3c800;fontColor=#000000;strokeColor=#B09500;" vertex="1" parent="1">
                    <mxGeometry x="330" y="240" width="120" height="60" as="geometry"/>
                </mxCell>
                <mxCell id="c_dcQmz6OHg3MqOsnEEQ-20" value="" style="endArrow=none;dashed=1;html=1;dashPattern=1 3;strokeWidth=2;entryX=0.25;entryY=1;entryDx=0;entryDy=0;exitX=0.75;exitY=0;exitDx=0;exitDy=0;" edge="1" parent="1" source="c_dcQmz6OHg3MqOsnEEQ-17" target="c_dcQmz6OHg3MqOsnEEQ-19">
                    <mxGeometry width="50" height="50" relative="1" as="geometry">
                        <mxPoint x="330" y="530" as="sourcePoint"/>
                        <mxPoint x="380" y="480" as="targetPoint"/>
                    </mxGeometry>
                </mxCell>
            </root>
        </mxGraphModel>
    </diagram>
    <diagram name="Page-1" id="z-yTJJPVUe2wy_WJeipi">
        <mxGraphModel dx="1638" dy="749" grid="1" gridSize="10" guides="1" tooltips="1" connect="1" arrows="1" fold="1" page="1" pageScale="1" pageWidth="1169" pageHeight="827" math="0" shadow="0">
            <root>
                <mxCell id="0"/>
                <mxCell id="1" parent="0"/>
                <mxCell id="i09huKmOD7Sbwmtj8IvK-2" value="region b" style="rounded=0;whiteSpace=wrap;html=1;verticalAlign=top;fillColor=none;align=left;" parent="1" vertex="1">
                    <mxGeometry x="315" y="320" width="160" height="240" as="geometry"/>
                </mxCell>
                <mxCell id="i09huKmOD7Sbwmtj8IvK-1" value="prim" style="shape=cylinder3;whiteSpace=wrap;html=1;boundedLbl=1;backgroundOutline=1;size=7.5;fillColor=#008a00;fontColor=#ffffff;strokeColor=#005700;" parent="1" vertex="1">
                    <mxGeometry x="325" y="400" width="40" height="40" as="geometry"/>
                </mxCell>
                <mxCell id="i09huKmOD7Sbwmtj8IvK-3" value="sec" style="shape=cylinder3;whiteSpace=wrap;html=1;boundedLbl=1;backgroundOutline=1;size=7.5;fillColor=#60a917;fontColor=#ffffff;strokeColor=#2D7600;" parent="1" vertex="1">
                    <mxGeometry x="425" y="400" width="40" height="40" as="geometry"/>
                </mxCell>
                <mxCell id="i09huKmOD7Sbwmtj8IvK-4" value="sec" style="shape=cylinder3;whiteSpace=wrap;html=1;boundedLbl=1;backgroundOutline=1;size=7.5;fillColor=#60a917;fontColor=#ffffff;strokeColor=#2D7600;" parent="1" vertex="1">
                    <mxGeometry x="375" y="400" width="40" height="40" as="geometry"/>
                </mxCell>
                <mxCell id="i09huKmOD7Sbwmtj8IvK-16" value="" style="group" parent="1" vertex="1" connectable="0">
                    <mxGeometry x="345" y="480" width="100" height="70" as="geometry"/>
                </mxCell>
                <mxCell id="i09huKmOD7Sbwmtj8IvK-7" value="" style="rounded=0;whiteSpace=wrap;html=1;fillColor=#d80073;fontColor=#ffffff;strokeColor=#A50040;" parent="i09huKmOD7Sbwmtj8IvK-16" vertex="1">
                    <mxGeometry x="30" y="10" width="60" height="30" as="geometry"/>
                </mxCell>
                <mxCell id="i09huKmOD7Sbwmtj8IvK-6" value="" style="rounded=0;whiteSpace=wrap;html=1;fillColor=#d80073;fontColor=#ffffff;strokeColor=#A50040;" parent="i09huKmOD7Sbwmtj8IvK-16" vertex="1">
                    <mxGeometry x="20" y="20" width="60" height="30" as="geometry"/>
                </mxCell>
                <mxCell id="i09huKmOD7Sbwmtj8IvK-5" value="clients" style="rounded=0;whiteSpace=wrap;html=1;fillColor=#d80073;fontColor=#ffffff;strokeColor=#A50040;" parent="i09huKmOD7Sbwmtj8IvK-16" vertex="1">
                    <mxGeometry x="10" y="30" width="60" height="30" as="geometry"/>
                </mxCell>
                <mxCell id="i09huKmOD7Sbwmtj8IvK-15" value="" style="rounded=0;whiteSpace=wrap;html=1;dashed=1;fillColor=none;" parent="i09huKmOD7Sbwmtj8IvK-16" vertex="1">
                    <mxGeometry width="100" height="70" as="geometry"/>
                </mxCell>
                <mxCell id="i09huKmOD7Sbwmtj8IvK-56" value="reads" style="edgeStyle=orthogonalEdgeStyle;rounded=0;orthogonalLoop=1;jettySize=auto;html=1;exitX=0.5;exitY=0;exitDx=0;exitDy=0;entryX=0;entryY=0.5;entryDx=0;entryDy=0;curved=1;dashed=1;dashPattern=1 2;fontSize=8;" parent="1" source="i09huKmOD7Sbwmtj8IvK-17" target="i09huKmOD7Sbwmtj8IvK-24" edge="1">
                    <mxGeometry x="-0.2157" y="-5" relative="1" as="geometry">
                        <mxPoint x="280" y="350.0000000000001" as="targetPoint"/>
                        <mxPoint as="offset"/>
                    </mxGeometry>
                </mxCell>
                <mxCell id="i09huKmOD7Sbwmtj8IvK-17" value="mongo-repl" style="rounded=1;whiteSpace=wrap;html=1;fillColor=#1ba1e2;fontColor=#ffffff;strokeColor=#006EAF;" parent="1" vertex="1">
                    <mxGeometry x="360" y="360" width="70" height="20" as="geometry"/>
                </mxCell>
                <mxCell id="i09huKmOD7Sbwmtj8IvK-18" style="edgeStyle=orthogonalEdgeStyle;rounded=0;orthogonalLoop=1;jettySize=auto;html=1;exitX=0.5;exitY=0;exitDx=0;exitDy=0;entryX=0.5;entryY=1;entryDx=0;entryDy=0;entryPerimeter=0;" parent="1" source="i09huKmOD7Sbwmtj8IvK-15" target="i09huKmOD7Sbwmtj8IvK-3" edge="1">
                    <mxGeometry relative="1" as="geometry"/>
                </mxCell>
                <mxCell id="i09huKmOD7Sbwmtj8IvK-19" style="edgeStyle=orthogonalEdgeStyle;rounded=0;orthogonalLoop=1;jettySize=auto;html=1;exitX=0.5;exitY=0;exitDx=0;exitDy=0;entryX=0.5;entryY=1;entryDx=0;entryDy=0;entryPerimeter=0;" parent="1" source="i09huKmOD7Sbwmtj8IvK-15" target="i09huKmOD7Sbwmtj8IvK-4" edge="1">
                    <mxGeometry relative="1" as="geometry"/>
                </mxCell>
                <mxCell id="i09huKmOD7Sbwmtj8IvK-20" style="edgeStyle=orthogonalEdgeStyle;rounded=0;orthogonalLoop=1;jettySize=auto;html=1;exitX=0.5;exitY=0;exitDx=0;exitDy=0;entryX=0.5;entryY=1;entryDx=0;entryDy=0;entryPerimeter=0;" parent="1" source="i09huKmOD7Sbwmtj8IvK-15" target="i09huKmOD7Sbwmtj8IvK-1" edge="1">
                    <mxGeometry relative="1" as="geometry"/>
                </mxCell>
                <mxCell id="i09huKmOD7Sbwmtj8IvK-21" value="write" style="edgeStyle=orthogonalEdgeStyle;rounded=0;orthogonalLoop=1;jettySize=auto;html=1;exitX=0;exitY=0.5;exitDx=0;exitDy=0;entryX=0.5;entryY=0;entryDx=0;entryDy=0;entryPerimeter=0;curved=1;dashed=1;dashPattern=1 1;fontSize=8;" parent="1" source="i09huKmOD7Sbwmtj8IvK-17" target="i09huKmOD7Sbwmtj8IvK-1" edge="1">
                    <mxGeometry relative="1" as="geometry"/>
                </mxCell>
                <mxCell id="i09huKmOD7Sbwmtj8IvK-22" value="write" style="edgeStyle=orthogonalEdgeStyle;rounded=0;orthogonalLoop=1;jettySize=auto;html=1;exitX=1;exitY=0.5;exitDx=0;exitDy=0;entryX=0.5;entryY=0;entryDx=0;entryDy=0;entryPerimeter=0;curved=1;dashed=1;dashPattern=1 1;fontSize=8;" parent="1" source="i09huKmOD7Sbwmtj8IvK-17" target="i09huKmOD7Sbwmtj8IvK-3" edge="1">
                    <mxGeometry relative="1" as="geometry"/>
                </mxCell>
                <mxCell id="i09huKmOD7Sbwmtj8IvK-23" value="write" style="edgeStyle=orthogonalEdgeStyle;rounded=0;orthogonalLoop=1;jettySize=auto;html=1;exitX=0.5;exitY=1;exitDx=0;exitDy=0;entryX=0.5;entryY=0;entryDx=0;entryDy=0;entryPerimeter=0;dashed=1;dashPattern=1 1;fontSize=8;" parent="1" source="i09huKmOD7Sbwmtj8IvK-17" target="i09huKmOD7Sbwmtj8IvK-4" edge="1">
                    <mxGeometry relative="1" as="geometry"/>
                </mxCell>
                <mxCell id="i09huKmOD7Sbwmtj8IvK-24" value="region a" style="rounded=0;whiteSpace=wrap;html=1;verticalAlign=top;fillColor=none;" parent="1" vertex="1">
                    <mxGeometry x="475" y="90" width="160" height="190" as="geometry"/>
                </mxCell>
                <mxCell id="i09huKmOD7Sbwmtj8IvK-25" value="prim" style="shape=cylinder3;whiteSpace=wrap;html=1;boundedLbl=1;backgroundOutline=1;size=7.5;fillColor=#008a00;fontColor=#ffffff;strokeColor=#005700;" parent="1" vertex="1">
                    <mxGeometry x="485" y="120" width="40" height="40" as="geometry"/>
                </mxCell>
                <mxCell id="i09huKmOD7Sbwmtj8IvK-26" value="sec" style="shape=cylinder3;whiteSpace=wrap;html=1;boundedLbl=1;backgroundOutline=1;size=7.5;fillColor=#60a917;fontColor=#ffffff;strokeColor=#2D7600;" parent="1" vertex="1">
                    <mxGeometry x="585" y="120" width="40" height="40" as="geometry"/>
                </mxCell>
                <mxCell id="i09huKmOD7Sbwmtj8IvK-27" value="sec" style="shape=cylinder3;whiteSpace=wrap;html=1;boundedLbl=1;backgroundOutline=1;size=7.5;fillColor=#60a917;fontColor=#ffffff;strokeColor=#2D7600;" parent="1" vertex="1">
                    <mxGeometry x="535" y="120" width="40" height="40" as="geometry"/>
                </mxCell>
                <mxCell id="i09huKmOD7Sbwmtj8IvK-28" value="" style="group" parent="1" vertex="1" connectable="0">
                    <mxGeometry x="505" y="200" width="100" height="70" as="geometry"/>
                </mxCell>
                <mxCell id="i09huKmOD7Sbwmtj8IvK-29" value="" style="rounded=0;whiteSpace=wrap;html=1;fillColor=#d80073;fontColor=#ffffff;strokeColor=#A50040;" parent="i09huKmOD7Sbwmtj8IvK-28" vertex="1">
                    <mxGeometry x="30" y="10" width="60" height="30" as="geometry"/>
                </mxCell>
                <mxCell id="i09huKmOD7Sbwmtj8IvK-30" value="" style="rounded=0;whiteSpace=wrap;html=1;fillColor=#d80073;fontColor=#ffffff;strokeColor=#A50040;" parent="i09huKmOD7Sbwmtj8IvK-28" vertex="1">
                    <mxGeometry x="20" y="20" width="60" height="30" as="geometry"/>
                </mxCell>
                <mxCell id="i09huKmOD7Sbwmtj8IvK-31" value="clients" style="rounded=0;whiteSpace=wrap;html=1;fillColor=#d80073;fontColor=#ffffff;strokeColor=#A50040;" parent="i09huKmOD7Sbwmtj8IvK-28" vertex="1">
                    <mxGeometry x="10" y="30" width="60" height="30" as="geometry"/>
                </mxCell>
                <mxCell id="i09huKmOD7Sbwmtj8IvK-32" value="" style="rounded=0;whiteSpace=wrap;html=1;dashed=1;fillColor=none;" parent="i09huKmOD7Sbwmtj8IvK-28" vertex="1">
                    <mxGeometry width="100" height="70" as="geometry"/>
                </mxCell>
                <mxCell id="i09huKmOD7Sbwmtj8IvK-34" style="edgeStyle=orthogonalEdgeStyle;rounded=0;orthogonalLoop=1;jettySize=auto;html=1;exitX=0.5;exitY=0;exitDx=0;exitDy=0;entryX=0.5;entryY=1;entryDx=0;entryDy=0;entryPerimeter=0;" parent="1" source="i09huKmOD7Sbwmtj8IvK-32" target="i09huKmOD7Sbwmtj8IvK-26" edge="1">
                    <mxGeometry relative="1" as="geometry"/>
                </mxCell>
                <mxCell id="i09huKmOD7Sbwmtj8IvK-35" style="edgeStyle=orthogonalEdgeStyle;rounded=0;orthogonalLoop=1;jettySize=auto;html=1;exitX=0.5;exitY=0;exitDx=0;exitDy=0;entryX=0.5;entryY=1;entryDx=0;entryDy=0;entryPerimeter=0;" parent="1" source="i09huKmOD7Sbwmtj8IvK-32" target="i09huKmOD7Sbwmtj8IvK-27" edge="1">
                    <mxGeometry relative="1" as="geometry"/>
                </mxCell>
                <mxCell id="i09huKmOD7Sbwmtj8IvK-36" style="edgeStyle=orthogonalEdgeStyle;rounded=0;orthogonalLoop=1;jettySize=auto;html=1;exitX=0.5;exitY=0;exitDx=0;exitDy=0;entryX=0.5;entryY=1;entryDx=0;entryDy=0;entryPerimeter=0;" parent="1" source="i09huKmOD7Sbwmtj8IvK-32" target="i09huKmOD7Sbwmtj8IvK-25" edge="1">
                    <mxGeometry relative="1" as="geometry"/>
                </mxCell>
                <mxCell id="i09huKmOD7Sbwmtj8IvK-40" value="region c" style="rounded=0;whiteSpace=wrap;html=1;verticalAlign=top;fillColor=none;align=left;fontSize=12;" parent="1" vertex="1">
                    <mxGeometry x="640" y="320" width="160" height="240" as="geometry"/>
                </mxCell>
                <mxCell id="i09huKmOD7Sbwmtj8IvK-41" value="prim" style="shape=cylinder3;whiteSpace=wrap;html=1;boundedLbl=1;backgroundOutline=1;size=7.5;fillColor=#008a00;fontColor=#ffffff;strokeColor=#005700;" parent="1" vertex="1">
                    <mxGeometry x="650" y="400" width="40" height="40" as="geometry"/>
                </mxCell>
                <mxCell id="i09huKmOD7Sbwmtj8IvK-42" value="sec" style="shape=cylinder3;whiteSpace=wrap;html=1;boundedLbl=1;backgroundOutline=1;size=7.5;fillColor=#60a917;fontColor=#ffffff;strokeColor=#2D7600;" parent="1" vertex="1">
                    <mxGeometry x="750" y="400" width="40" height="40" as="geometry"/>
                </mxCell>
                <mxCell id="i09huKmOD7Sbwmtj8IvK-43" value="sec" style="shape=cylinder3;whiteSpace=wrap;html=1;boundedLbl=1;backgroundOutline=1;size=7.5;fillColor=#60a917;fontColor=#ffffff;strokeColor=#2D7600;" parent="1" vertex="1">
                    <mxGeometry x="700" y="400" width="40" height="40" as="geometry"/>
                </mxCell>
                <mxCell id="i09huKmOD7Sbwmtj8IvK-44" value="" style="group" parent="1" vertex="1" connectable="0">
                    <mxGeometry x="670" y="480" width="100" height="70" as="geometry"/>
                </mxCell>
                <mxCell id="i09huKmOD7Sbwmtj8IvK-45" value="" style="rounded=0;whiteSpace=wrap;html=1;fillColor=#d80073;fontColor=#ffffff;strokeColor=#A50040;" parent="i09huKmOD7Sbwmtj8IvK-44" vertex="1">
                    <mxGeometry x="30" y="10" width="60" height="30" as="geometry"/>
                </mxCell>
                <mxCell id="i09huKmOD7Sbwmtj8IvK-46" value="" style="rounded=0;whiteSpace=wrap;html=1;fillColor=#d80073;fontColor=#ffffff;strokeColor=#A50040;" parent="i09huKmOD7Sbwmtj8IvK-44" vertex="1">
                    <mxGeometry x="20" y="20" width="60" height="30" as="geometry"/>
                </mxCell>
                <mxCell id="i09huKmOD7Sbwmtj8IvK-47" value="clients" style="rounded=0;whiteSpace=wrap;html=1;fillColor=#d80073;fontColor=#ffffff;strokeColor=#A50040;" parent="i09huKmOD7Sbwmtj8IvK-44" vertex="1">
                    <mxGeometry x="10" y="30" width="60" height="30" as="geometry"/>
                </mxCell>
                <mxCell id="i09huKmOD7Sbwmtj8IvK-48" value="" style="rounded=0;whiteSpace=wrap;html=1;dashed=1;fillColor=none;" parent="i09huKmOD7Sbwmtj8IvK-44" vertex="1">
                    <mxGeometry width="100" height="70" as="geometry"/>
                </mxCell>
                <mxCell id="i09huKmOD7Sbwmtj8IvK-57" value="reads" style="edgeStyle=orthogonalEdgeStyle;rounded=0;orthogonalLoop=1;jettySize=auto;html=1;exitX=0.5;exitY=0;exitDx=0;exitDy=0;entryX=1;entryY=0.5;entryDx=0;entryDy=0;dashed=1;dashPattern=1 2;curved=1;fontSize=8;" parent="1" source="i09huKmOD7Sbwmtj8IvK-49" target="i09huKmOD7Sbwmtj8IvK-24" edge="1">
                    <mxGeometry x="-0.2308" y="10" relative="1" as="geometry">
                        <mxPoint as="offset"/>
                    </mxGeometry>
                </mxCell>
                <mxCell id="i09huKmOD7Sbwmtj8IvK-49" value="mongo-repl" style="rounded=1;whiteSpace=wrap;html=1;fillColor=#1ba1e2;fontColor=#ffffff;strokeColor=#006EAF;" parent="1" vertex="1">
                    <mxGeometry x="685" y="360" width="70" height="20" as="geometry"/>
                </mxCell>
                <mxCell id="i09huKmOD7Sbwmtj8IvK-50" style="edgeStyle=orthogonalEdgeStyle;rounded=0;orthogonalLoop=1;jettySize=auto;html=1;exitX=0.5;exitY=0;exitDx=0;exitDy=0;entryX=0.5;entryY=1;entryDx=0;entryDy=0;entryPerimeter=0;" parent="1" source="i09huKmOD7Sbwmtj8IvK-48" target="i09huKmOD7Sbwmtj8IvK-42" edge="1">
                    <mxGeometry relative="1" as="geometry"/>
                </mxCell>
                <mxCell id="i09huKmOD7Sbwmtj8IvK-51" style="edgeStyle=orthogonalEdgeStyle;rounded=0;orthogonalLoop=1;jettySize=auto;html=1;exitX=0.5;exitY=0;exitDx=0;exitDy=0;entryX=0.5;entryY=1;entryDx=0;entryDy=0;entryPerimeter=0;" parent="1" source="i09huKmOD7Sbwmtj8IvK-48" target="i09huKmOD7Sbwmtj8IvK-43" edge="1">
                    <mxGeometry relative="1" as="geometry"/>
                </mxCell>
                <mxCell id="i09huKmOD7Sbwmtj8IvK-52" style="edgeStyle=orthogonalEdgeStyle;rounded=0;orthogonalLoop=1;jettySize=auto;html=1;exitX=0.5;exitY=0;exitDx=0;exitDy=0;entryX=0.5;entryY=1;entryDx=0;entryDy=0;entryPerimeter=0;" parent="1" source="i09huKmOD7Sbwmtj8IvK-48" target="i09huKmOD7Sbwmtj8IvK-41" edge="1">
                    <mxGeometry relative="1" as="geometry"/>
                </mxCell>
                <mxCell id="i09huKmOD7Sbwmtj8IvK-53" value="write" style="edgeStyle=orthogonalEdgeStyle;rounded=0;orthogonalLoop=1;jettySize=auto;html=1;exitX=0;exitY=0.5;exitDx=0;exitDy=0;entryX=0.5;entryY=0;entryDx=0;entryDy=0;entryPerimeter=0;curved=1;dashed=1;dashPattern=1 1;fontSize=8;" parent="1" source="i09huKmOD7Sbwmtj8IvK-49" target="i09huKmOD7Sbwmtj8IvK-41" edge="1">
                    <mxGeometry relative="1" as="geometry"/>
                </mxCell>
                <mxCell id="i09huKmOD7Sbwmtj8IvK-54" value="write" style="edgeStyle=orthogonalEdgeStyle;rounded=0;orthogonalLoop=1;jettySize=auto;html=1;exitX=1;exitY=0.5;exitDx=0;exitDy=0;entryX=0.5;entryY=0;entryDx=0;entryDy=0;entryPerimeter=0;curved=1;dashed=1;dashPattern=1 1;fontSize=8;" parent="1" source="i09huKmOD7Sbwmtj8IvK-49" target="i09huKmOD7Sbwmtj8IvK-42" edge="1">
                    <mxGeometry relative="1" as="geometry"/>
                </mxCell>
                <mxCell id="i09huKmOD7Sbwmtj8IvK-55" value="write" style="edgeStyle=orthogonalEdgeStyle;rounded=0;orthogonalLoop=1;jettySize=auto;html=1;exitX=0.5;exitY=1;exitDx=0;exitDy=0;entryX=0.5;entryY=0;entryDx=0;entryDy=0;entryPerimeter=0;dashed=1;dashPattern=1 1;fontSize=8;" parent="1" source="i09huKmOD7Sbwmtj8IvK-49" target="i09huKmOD7Sbwmtj8IvK-43" edge="1">
                    <mxGeometry relative="1" as="geometry"/>
                </mxCell>
            </root>
        </mxGraphModel>
    </diagram>
</mxfile>